<svg width="100%" height="100%" viewBox="3 5 24 18" fill="none" xmlns="http://www.w3.org/2000/svg">
    <path fill-rule="evenodd" clip-rule="evenodd" d="M10.875 5.92505C10.2223 5.92505 9.61081 6.25141 9.2396 6.79051L3.58284 15.0063C2.8647 16.0493 3.61051 17.475 4.875 17.475H10.5V19.4C10.5 20.8912 11.7088 22.1 13.2 22.1H18.975C19.6277 22.1 20.2392 21.7737 20.6104 21.2346L26.2672 13.0188C26.9853 11.9758 26.2395 10.55 24.975 10.55H19.35V8.62505C19.35 7.13388 18.1412 5.92505 16.65 5.92505H10.875ZM15.6896 9.41505L9.6604 18.1718C9.55781 18.3208 9.66436 18.525 9.84534 18.525H16.05C16.3814 18.525 16.65 18.2564 16.65 17.925V13.05C16.65 11.973 17.523 11.1 18.6 11.1H22.1466L23.4896 9.14959C23.5922 9.00057 23.4856 8.79636 23.3047 8.79636H16.65C16.1199 8.79636 15.6896 9.2266 15.6896 9.75666V9.41505ZM17.1604 18.6083C17.263 18.4593 17.1565 18.2551 16.9755 18.2551H13.2C12.6698 18.2551 12.24 17.8253 12.24 17.2952V14.525H8.7034L7.3604 16.4755C7.25781 16.6245 7.36436 16.8287 7.54534 16.8287H13.2C13.5314 16.8287 13.8 17.0973 13.8 17.4287V21.1718L17.1604 18.6083Z" fill="#080B12"/>
    <path fill-rule="evenodd" clip-rule="evenodd" d="M10.875 5.92505H16.65C18.1412 5.92505 19.35 7.13388 19.35 8.62505V10.55H24.975C26.2395 10.55 26.9853 11.9758 26.2672 13.0188L20.6104 21.2346C20.2392 21.7737 19.6277 22.1 18.975 22.1H13.2C11.7088 22.1 10.5 20.8912 10.5 19.4V17.475H4.875C3.61051 17.475 2.8647 16.0493 3.58284 15.0063L9.2396 6.79051C9.61081 6.25141 10.2223 5.92505 10.875 5.92505ZM12.24 17.2952C12.24 17.8253 12.6698 18.2551 13.2 18.2551H16.9755C17.1565 18.2551 17.263 18.4593 17.1604 18.6083L13.8 21.1718V17.4287C13.8 17.0973 13.5314 16.8287 13.2 16.8287H7.54534C7.36436 16.8287 7.25781 16.6245 7.3604 16.4755L8.7034 14.525H12.24V17.2952ZM16.05 18.525C16.3814 18.525 16.65 18.2564 16.65 17.925V13.05C16.65 11.973 17.523 11.1 18.6 11.1H22.1466L23.4896 9.14959C23.5922 9.00057 23.4856 8.79636 23.3047 8.79636H16.65C16.1199 8.79636 15.6896 9.2266 15.6896 9.75666V9.41505L9.6604 18.1718C9.55781 18.3208 9.66436 18.525 9.84534 18.525H16.05Z" fill="#080B12"/>
</svg>
